<svg xmlns="http://www.w3.org/2000/svg" width="18" height="20" viewBox="0 0 18 20">
  <defs>
    <style>
      .cls-1 {
        fill: #818181;
      }
    </style>
  </defs>
  <g id="_8675430_ic_fluent_router_regular_icon" data-name="8675430_ic_fluent_router_regular_icon" transform="translate(-3 -2)">
    <path id="Path_45" data-name="Path 45" class="cls-1" d="M12,3.5A7.5,7.5,0,0,0,4.5,11v.25a.75.75,0,0,1-1.5,0V11a9,9,0,0,1,18,0v.25a.75.75,0,0,1-1.5,0V11A7.5,7.5,0,0,0,12,3.5Z"/>
    <path id="Path_46" data-name="Path 46" class="cls-1" d="M12,6.5A4.5,4.5,0,0,0,7.5,11v.25a.75.75,0,0,1-1.5,0V11a6,6,0,0,1,12,0v.25a.75.75,0,0,1-1.5,0V11A4.5,4.5,0,0,0,12,6.5Z"/>
    <path id="Path_47" data-name="Path 47" class="cls-1" d="M12,8a3,3,0,0,0-.75,5.906V16H6a3,3,0,0,0,0,6H18a3,3,0,0,0,0-6H12.75V13.906A3,3,0,0,0,12,8Zm-1.5,3A1.5,1.5,0,1,1,12,12.5,1.5,1.5,0,0,1,10.5,11ZM6,17.5H18a1.5,1.5,0,0,1,0,3H6a1.5,1.5,0,0,1,0-3Z"/>
  </g>
</svg>
