<svg xmlns="http://www.w3.org/2000/svg" width="18" height="18.001" viewBox="0 0 18 18.001">
  <defs>
    <style>
      .cls-1 {
        fill: #818181;
      }
    </style>
  </defs>
  <g id="Group_61" data-name="Group 61" transform="translate(-40 -281)">
    <g id="Group_11" data-name="Group 11" transform="translate(42.719 281)">
      <path id="Path_25" data-name="Path 25" class="cls-1" d="M12.281,17.961a.621.621,0,0,1-.407-.152,22.711,22.711,0,0,1-5.226-6.664.642.642,0,0,1,.318-.843.624.624,0,0,1,.829.324,20.57,20.57,0,0,0,4.475,5.829c1.715-1.692,5.036-5.473,5.036-7.924a5.149,5.149,0,0,0-5.025-5.254A5.149,5.149,0,0,0,7.256,8.531.628.628,0,1,1,6,8.531,6.417,6.417,0,0,1,12.281,2a6.417,6.417,0,0,1,6.281,6.531c0,3.775-5.618,9.04-5.857,9.263A.623.623,0,0,1,12.281,17.961Z" transform="translate(-6 -2)"/>
    </g>
    <g id="Group_12" data-name="Group 12" transform="translate(46.281 284.769)">
      <path id="Path_26" data-name="Path 26" class="cls-1" d="M14.719,13.438a2.719,2.719,0,1,1,2.719-2.719A2.722,2.722,0,0,1,14.719,13.438Zm0-4.079a1.36,1.36,0,1,0,1.36,1.36A1.361,1.361,0,0,0,14.719,9.36Z" transform="translate(-12 -8)"/>
    </g>
    <g id="Group_13" data-name="Group 13" transform="translate(40 292.882)">
      <path id="Path_27" data-name="Path 27" class="cls-1" d="M19.358,27.118H2.643a.637.637,0,0,1-.556-.339.713.713,0,0,1,0-.678l2.572-4.758a.624.624,0,0,1,.877-.253.7.7,0,0,1,.239.927L3.751,25.758h14.5l-2.022-3.742a.7.7,0,0,1,.239-.927.623.623,0,0,1,.877.253L19.915,26.1a.713.713,0,0,1,0,.678A.635.635,0,0,1,19.358,27.118Z" transform="translate(-2 -20.999)"/>
    </g>
  </g>
</svg>
