<svg id="Layer_17" xmlns="http://www.w3.org/2000/svg" width="39.296" height="36.006" viewBox="0 0 39.296 36.006">
  <defs>
    <style>
      .cls-1 {
        fill: #4a4a4a;
      }
    </style>
  </defs>
  <g id="Group_3" data-name="Group 3" transform="translate(0 0)">
    <path id="Path_3" data-name="Path 3" class="cls-1" d="M39.034,10.914a.565.565,0,0,0-.615-.061L25.879,15.34l-8.79-3.2a9.036,9.036,0,0,0,.738-3.258,5.944,5.944,0,0,0-1.783-4.3,6.085,6.085,0,0,0-10.389,4.3,11.622,11.622,0,0,0,1.168,4.3L.43,15.34a.74.74,0,0,0-.43.615V38.084a.646.646,0,0,0,.307.553.874.874,0,0,0,.369.123A.37.37,0,0,0,.922,38.7l12.54-4.426L25.633,38.76a.525.525,0,0,0,.43,0l12.786-4.549a.74.74,0,0,0,.43-.615V11.467A.5.5,0,0,0,39.034,10.914ZM11.741,4.029A4.457,4.457,0,0,1,15.06,5.443h0a4.556,4.556,0,0,1,1.414,3.319,8.755,8.755,0,0,1-.922,3.381,37.462,37.462,0,0,1-3.811,6.209,2.6,2.6,0,0,1-.307-.43,34.1,34.1,0,0,1-3.012-4.856A10.126,10.126,0,0,1,7.069,8.7,4.669,4.669,0,0,1,11.741,4.029ZM37.989,33.1l-12.11,4.3L13.708,32.921c-.061,0-.184-.061-.246-.061a.37.37,0,0,0-.246.061L1.352,37.162V16.446L7.5,14.295v.061c.061.061.061.123.123.184l.184.369c.061.061.061.123.123.184l.184.369c.061.061.061.123.123.184a1.344,1.344,0,0,0,.184.307c.061.061.061.123.123.184.061.123.123.184.184.307.061.061.061.123.123.184.061.123.123.184.184.307.061.061.061.123.123.184.061.123.123.184.184.307.061.061.061.123.123.184.061.123.123.184.184.307.061.061.061.123.123.123a.849.849,0,0,0,.184.246c0,.061.061.061.061.123a.849.849,0,0,0,.184.246l.061.061c.061.061.123.184.184.246l.061.061c.061.061.123.184.184.246h0l.184.184h0c.123.184.246.307.246.369a.6.6,0,0,0,.553.246,1.1,1.1,0,0,0,.553-.246l.184-.184.061-.061.123-.123.061-.061c.061-.061.061-.123.123-.184,0-.061.061-.061.061-.123.061-.061.123-.123.123-.184.061-.061.061-.123.123-.184a.849.849,0,0,0,.184-.246c.061-.061.061-.123.123-.184a.849.849,0,0,0,.184-.246c.061-.061.123-.123.123-.184.061-.061.123-.184.184-.246s.123-.184.184-.246.123-.184.184-.246.123-.184.184-.246c.061-.123.123-.184.184-.307.061-.061.123-.184.184-.246.061-.123.123-.184.184-.307s.123-.184.184-.307.123-.184.184-.307.123-.184.184-.307.123-.184.184-.307.123-.184.184-.307.123-.184.184-.307.123-.184.184-.307a1.344,1.344,0,0,1,.184-.307c.061-.123.123-.184.123-.307v-.061l9.1,3.319a.525.525,0,0,0,.43,0l11.864-4.241V33.1Z" transform="translate(0 -2.8)"/>
    <path id="Path_4" data-name="Path 4" class="cls-1" d="M51.507,39.979a1.046,1.046,0,0,0,.43.061,2.072,2.072,0,0,0,1.045-.307,2.166,2.166,0,0,0,.861-1.229,2.064,2.064,0,0,0-.246-1.475,2.166,2.166,0,0,0-1.229-.861,2.024,2.024,0,0,0-2.4,1.475h0a2.064,2.064,0,0,0,.246,1.475A2.535,2.535,0,0,0,51.507,39.979Zm-.184-2.09a.622.622,0,0,1,.738-.492c.184.061.307.123.369.307a.653.653,0,0,1,.061.492c-.061.184-.123.307-.307.369a.653.653,0,0,1-.492.061c-.184-.061-.307-.123-.369-.307Z" transform="translate(-19.234 -15.637)"/>
    <path id="Path_5" data-name="Path 5" class="cls-1" d="M9.569,38.787l-.43.246-.246-.43a.665.665,0,0,0-1.106.738l.246.43-.43.246a.626.626,0,0,0-.184.922.461.461,0,0,0,.492.307.874.874,0,0,0,.369-.123l.43-.246.246.43a.733.733,0,0,0,.553.307.874.874,0,0,0,.369-.123.626.626,0,0,0,.184-.922l-.246-.43.43-.246a.626.626,0,0,0,.184-.922A.593.593,0,0,0,9.569,38.787Z" transform="translate(-2.808 -16.473)"/>
    <path id="Path_6" data-name="Path 6" class="cls-1" d="M19.214,41.9a10.884,10.884,0,0,1-2.52-.307.687.687,0,1,0-.246,1.352,16.465,16.465,0,0,0,2.766.307h0a.676.676,0,1,0,0-1.352Z" transform="translate(-6.12 -17.744)"/>
    <path id="Path_7" data-name="Path 7" class="cls-1" d="M27.853,38.141a5.015,5.015,0,0,1-1.537,1.475,6.705,6.705,0,0,1-.676.369.7.7,0,0,0-.369.922.74.74,0,0,0,.615.43.37.37,0,0,0,.246-.061,3.312,3.312,0,0,0,.8-.43,7.485,7.485,0,0,0,1.906-1.783.616.616,0,0,0-.123-.922C28.529,37.772,28.1,37.833,27.853,38.141Z" transform="translate(-9.719 -16.319)"/>
    <path id="Path_8" data-name="Path 8" class="cls-1" d="M35.4,31.1a3.723,3.723,0,0,0-1.414.307A5.181,5.181,0,0,0,32.2,32.821a.747.747,0,0,0,.061.984.664.664,0,0,0,.43.184.559.559,0,0,0,.492-.246A4.381,4.381,0,0,1,34.476,32.7a4.044,4.044,0,0,1,.922-.246.676.676,0,1,0,0-1.352Z" transform="translate(-12.347 -13.704)"/>
    <path id="Path_9" data-name="Path 9" class="cls-1" d="M41.571,32.574a.724.724,0,0,0,.369.922,13.732,13.732,0,0,1,2.4,1.352.874.874,0,0,0,.369.123.646.646,0,0,0,.553-.307.677.677,0,0,0-.184-.922,15.953,15.953,0,0,0-2.643-1.414A.578.578,0,0,0,41.571,32.574Z" transform="translate(-15.999 -14.133)"/>
    <path id="Path_10" data-name="Path 10" class="cls-1" d="M17.79,12.58a2.09,2.09,0,1,0-2.09-2.09A2.112,2.112,0,0,0,17.79,12.58Zm0-2.828a.738.738,0,1,1-.738.738A.848.848,0,0,1,17.79,9.752Z" transform="translate(-6.049 -4.958)"/>
  </g>
</svg>
