<svg xmlns="http://www.w3.org/2000/svg" width="18.483" height="18.467" viewBox="0 0 18.483 18.467">
  <defs>
    <style>
      .cls-1 {
        fill: #818181;
      }
    </style>
  </defs>
  <g id="Group_62" data-name="Group 62" transform="translate(-40 -230)">
    <path id="path2209" class="cls-1" d="M-253.706-159.257a2.909,2.909,0,0,1-2.905-2.905,2.909,2.909,0,0,1,2.905-2.905,2.909,2.909,0,0,1,2.905,2.905,2.909,2.909,0,0,1-2.905,2.905m-5.333,5.055a1.6,1.6,0,0,1-1.594-1.594,1.6,1.6,0,0,1,1.594-1.594,1.6,1.6,0,0,1,1.594,1.594,1.6,1.6,0,0,1-1.594,1.594m-3-14.244a1.914,1.914,0,0,1,1.912-1.912,1.914,1.914,0,0,1,1.912,1.912,1.914,1.914,0,0,1-1.912,1.912,1.914,1.914,0,0,1-1.912-1.912m14.73,1.323A1.127,1.127,0,0,1-246.182-166a1.127,1.127,0,0,1-1.126,1.126A1.127,1.127,0,0,1-248.434-166a1.127,1.127,0,0,1,1.126-1.126m-1.589,2.642a2.192,2.192,0,0,0,1.589.682,2.2,2.2,0,0,0,2.2-2.2,2.2,2.2,0,0,0-2.2-2.2,2.2,2.2,0,0,0-2.2,2.2,2.194,2.194,0,0,0,.079.581l-1.165.781a3.972,3.972,0,0,0-3.113-1.5,3.958,3.958,0,0,0-2.482.872l-1.574-1.36a2.969,2.969,0,0,0,.62-1.818,2.988,2.988,0,0,0-2.984-2.985,2.988,2.988,0,0,0-2.985,2.985,2.988,2.988,0,0,0,2.985,2.984,2.966,2.966,0,0,0,1.562-.443l1.635,1.413a3.956,3.956,0,0,0-.755,2.329,3.961,3.961,0,0,0,.982,2.614l-1.094,1.4a2.649,2.649,0,0,0-1.244-.309A2.669,2.669,0,0,0-261.7-155.8a2.669,2.669,0,0,0,2.666,2.666,2.669,2.669,0,0,0,2.666-2.666,2.653,2.653,0,0,0-.594-1.675l1.074-1.37a3.954,3.954,0,0,0,2.187.657,3.982,3.982,0,0,0,3.978-3.978,3.955,3.955,0,0,0-.315-1.551Z" transform="translate(303.11 401.43)"/>
    <path id="path2213" class="cls-1" d="M-56.246-26.3a1.216,1.216,0,0,1-1.215-1.215,1.216,1.216,0,0,1,1.215-1.214,1.216,1.216,0,0,1,1.215,1.214A1.216,1.216,0,0,1-56.246-26.3m0-3.7a2.486,2.486,0,0,0-2.484,2.483,2.486,2.486,0,0,0,2.484,2.484,2.486,2.486,0,0,0,2.483-2.484A2.486,2.486,0,0,0-56.246-30" transform="translate(112.247 273.5)"/>
  </g>
</svg>
